<?xml version="1.0" standalone="no"?>
<svg xmlns="http://www.w3.org/2000/svg" version="1.1" width="261" height="261">
	<!-- Created with https://api.qrserver.com (QR Code API, see goQR.me/api for information) -->
	<title>QR Code</title>
	<desc>https://prostcounter.fun/download</desc>
	<rect style="fill:rgb(255, 255, 255);fill-opacity:1" x="0" y="0" width="261" height="261" />
	<g id="elements">
		<path style="fill:rgb(0, 0, 0)" d="M 0,0 l 9,0 0,9 -9,0 z M 9,0 l 9,0 0,9 -9,0 z M 18,0 l 9,0 0,9 -9,0 z M 27,0 l 9,0 0,9 -9,0 z M 36,0 l 9,0 0,9 -9,0 z M 45,0 l 9,0 0,9 -9,0 z M 54,0 l 9,0 0,9 -9,0 z M 81,0 l 9,0 0,9 -9,0 z M 135,0 l 9,0 0,9 -9,0 z M 144,0 l 9,0 0,9 -9,0 z M 171,0 l 9,0 0,9 -9,0 z M 180,0 l 9,0 0,9 -9,0 z M 198,0 l 9,0 0,9 -9,0 z M 207,0 l 9,0 0,9 -9,0 z M 216,0 l 9,0 0,9 -9,0 z M 225,0 l 9,0 0,9 -9,0 z M 234,0 l 9,0 0,9 -9,0 z M 243,0 l 9,0 0,9 -9,0 z M 252,0 l 9,0 0,9 -9,0 z M 0,9 l 9,0 0,9 -9,0 z M 54,9 l 9,0 0,9 -9,0 z M 72,9 l 9,0 0,9 -9,0 z M 81,9 l 9,0 0,9 -9,0 z M 99,9 l 9,0 0,9 -9,0 z M 108,9 l 9,0 0,9 -9,0 z M 198,9 l 9,0 0,9 -9,0 z M 252,9 l 9,0 0,9 -9,0 z M 0,18 l 9,0 0,9 -9,0 z M 18,18 l 9,0 0,9 -9,0 z M 27,18 l 9,0 0,9 -9,0 z M 36,18 l 9,0 0,9 -9,0 z M 54,18 l 9,0 0,9 -9,0 z M 81,18 l 9,0 0,9 -9,0 z M 90,18 l 9,0 0,9 -9,0 z M 99,18 l 9,0 0,9 -9,0 z M 126,18 l 9,0 0,9 -9,0 z M 144,18 l 9,0 0,9 -9,0 z M 171,18 l 9,0 0,9 -9,0 z M 180,18 l 9,0 0,9 -9,0 z M 198,18 l 9,0 0,9 -9,0 z M 216,18 l 9,0 0,9 -9,0 z M 225,18 l 9,0 0,9 -9,0 z M 234,18 l 9,0 0,9 -9,0 z M 252,18 l 9,0 0,9 -9,0 z M 0,27 l 9,0 0,9 -9,0 z M 18,27 l 9,0 0,9 -9,0 z M 27,27 l 9,0 0,9 -9,0 z M 36,27 l 9,0 0,9 -9,0 z M 54,27 l 9,0 0,9 -9,0 z M 72,27 l 9,0 0,9 -9,0 z M 81,27 l 9,0 0,9 -9,0 z M 99,27 l 9,0 0,9 -9,0 z M 144,27 l 9,0 0,9 -9,0 z M 153,27 l 9,0 0,9 -9,0 z M 198,27 l 9,0 0,9 -9,0 z M 216,27 l 9,0 0,9 -9,0 z M 225,27 l 9,0 0,9 -9,0 z M 234,27 l 9,0 0,9 -9,0 z M 252,27 l 9,0 0,9 -9,0 z M 0,36 l 9,0 0,9 -9,0 z M 18,36 l 9,0 0,9 -9,0 z M 27,36 l 9,0 0,9 -9,0 z M 36,36 l 9,0 0,9 -9,0 z M 54,36 l 9,0 0,9 -9,0 z M 90,36 l 9,0 0,9 -9,0 z M 108,36 l 9,0 0,9 -9,0 z M 117,36 l 9,0 0,9 -9,0 z M 126,36 l 9,0 0,9 -9,0 z M 135,36 l 9,0 0,9 -9,0 z M 153,36 l 9,0 0,9 -9,0 z M 162,36 l 9,0 0,9 -9,0 z M 171,36 l 9,0 0,9 -9,0 z M 180,36 l 9,0 0,9 -9,0 z M 198,36 l 9,0 0,9 -9,0 z M 216,36 l 9,0 0,9 -9,0 z M 225,36 l 9,0 0,9 -9,0 z M 234,36 l 9,0 0,9 -9,0 z M 252,36 l 9,0 0,9 -9,0 z M 0,45 l 9,0 0,9 -9,0 z M 54,45 l 9,0 0,9 -9,0 z M 72,45 l 9,0 0,9 -9,0 z M 90,45 l 9,0 0,9 -9,0 z M 117,45 l 9,0 0,9 -9,0 z M 126,45 l 9,0 0,9 -9,0 z M 135,45 l 9,0 0,9 -9,0 z M 144,45 l 9,0 0,9 -9,0 z M 153,45 l 9,0 0,9 -9,0 z M 198,45 l 9,0 0,9 -9,0 z M 252,45 l 9,0 0,9 -9,0 z M 0,54 l 9,0 0,9 -9,0 z M 9,54 l 9,0 0,9 -9,0 z M 18,54 l 9,0 0,9 -9,0 z M 27,54 l 9,0 0,9 -9,0 z M 36,54 l 9,0 0,9 -9,0 z M 45,54 l 9,0 0,9 -9,0 z M 54,54 l 9,0 0,9 -9,0 z M 72,54 l 9,0 0,9 -9,0 z M 90,54 l 9,0 0,9 -9,0 z M 108,54 l 9,0 0,9 -9,0 z M 126,54 l 9,0 0,9 -9,0 z M 144,54 l 9,0 0,9 -9,0 z M 162,54 l 9,0 0,9 -9,0 z M 180,54 l 9,0 0,9 -9,0 z M 198,54 l 9,0 0,9 -9,0 z M 207,54 l 9,0 0,9 -9,0 z M 216,54 l 9,0 0,9 -9,0 z M 225,54 l 9,0 0,9 -9,0 z M 234,54 l 9,0 0,9 -9,0 z M 243,54 l 9,0 0,9 -9,0 z M 252,54 l 9,0 0,9 -9,0 z M 108,63 l 9,0 0,9 -9,0 z M 117,63 l 9,0 0,9 -9,0 z M 135,63 l 9,0 0,9 -9,0 z M 162,63 l 9,0 0,9 -9,0 z M 171,63 l 9,0 0,9 -9,0 z M 180,63 l 9,0 0,9 -9,0 z M 0,72 l 9,0 0,9 -9,0 z M 9,72 l 9,0 0,9 -9,0 z M 18,72 l 9,0 0,9 -9,0 z M 27,72 l 9,0 0,9 -9,0 z M 36,72 l 9,0 0,9 -9,0 z M 54,72 l 9,0 0,9 -9,0 z M 63,72 l 9,0 0,9 -9,0 z M 72,72 l 9,0 0,9 -9,0 z M 81,72 l 9,0 0,9 -9,0 z M 90,72 l 9,0 0,9 -9,0 z M 108,72 l 9,0 0,9 -9,0 z M 126,72 l 9,0 0,9 -9,0 z M 135,72 l 9,0 0,9 -9,0 z M 153,72 l 9,0 0,9 -9,0 z M 162,72 l 9,0 0,9 -9,0 z M 171,72 l 9,0 0,9 -9,0 z M 189,72 l 9,0 0,9 -9,0 z M 207,72 l 9,0 0,9 -9,0 z M 225,72 l 9,0 0,9 -9,0 z M 243,72 l 9,0 0,9 -9,0 z M 9,81 l 9,0 0,9 -9,0 z M 18,81 l 9,0 0,9 -9,0 z M 36,81 l 9,0 0,9 -9,0 z M 81,81 l 9,0 0,9 -9,0 z M 135,81 l 9,0 0,9 -9,0 z M 144,81 l 9,0 0,9 -9,0 z M 153,81 l 9,0 0,9 -9,0 z M 162,81 l 9,0 0,9 -9,0 z M 171,81 l 9,0 0,9 -9,0 z M 198,81 l 9,0 0,9 -9,0 z M 207,81 l 9,0 0,9 -9,0 z M 216,81 l 9,0 0,9 -9,0 z M 252,81 l 9,0 0,9 -9,0 z M 0,90 l 9,0 0,9 -9,0 z M 18,90 l 9,0 0,9 -9,0 z M 27,90 l 9,0 0,9 -9,0 z M 45,90 l 9,0 0,9 -9,0 z M 54,90 l 9,0 0,9 -9,0 z M 63,90 l 9,0 0,9 -9,0 z M 72,90 l 9,0 0,9 -9,0 z M 81,90 l 9,0 0,9 -9,0 z M 99,90 l 9,0 0,9 -9,0 z M 108,90 l 9,0 0,9 -9,0 z M 153,90 l 9,0 0,9 -9,0 z M 207,90 l 9,0 0,9 -9,0 z M 18,99 l 9,0 0,9 -9,0 z M 63,99 l 9,0 0,9 -9,0 z M 72,99 l 9,0 0,9 -9,0 z M 81,99 l 9,0 0,9 -9,0 z M 90,99 l 9,0 0,9 -9,0 z M 99,99 l 9,0 0,9 -9,0 z M 126,99 l 9,0 0,9 -9,0 z M 144,99 l 9,0 0,9 -9,0 z M 171,99 l 9,0 0,9 -9,0 z M 189,99 l 9,0 0,9 -9,0 z M 216,99 l 9,0 0,9 -9,0 z M 225,99 l 9,0 0,9 -9,0 z M 243,99 l 9,0 0,9 -9,0 z M 0,108 l 9,0 0,9 -9,0 z M 9,108 l 9,0 0,9 -9,0 z M 18,108 l 9,0 0,9 -9,0 z M 27,108 l 9,0 0,9 -9,0 z M 36,108 l 9,0 0,9 -9,0 z M 54,108 l 9,0 0,9 -9,0 z M 63,108 l 9,0 0,9 -9,0 z M 81,108 l 9,0 0,9 -9,0 z M 99,108 l 9,0 0,9 -9,0 z M 153,108 l 9,0 0,9 -9,0 z M 180,108 l 9,0 0,9 -9,0 z M 207,108 l 9,0 0,9 -9,0 z M 225,108 l 9,0 0,9 -9,0 z M 234,108 l 9,0 0,9 -9,0 z M 0,117 l 9,0 0,9 -9,0 z M 9,117 l 9,0 0,9 -9,0 z M 36,117 l 9,0 0,9 -9,0 z M 45,117 l 9,0 0,9 -9,0 z M 81,117 l 9,0 0,9 -9,0 z M 90,117 l 9,0 0,9 -9,0 z M 108,117 l 9,0 0,9 -9,0 z M 117,117 l 9,0 0,9 -9,0 z M 126,117 l 9,0 0,9 -9,0 z M 135,117 l 9,0 0,9 -9,0 z M 162,117 l 9,0 0,9 -9,0 z M 171,117 l 9,0 0,9 -9,0 z M 180,117 l 9,0 0,9 -9,0 z M 189,117 l 9,0 0,9 -9,0 z M 198,117 l 9,0 0,9 -9,0 z M 207,117 l 9,0 0,9 -9,0 z M 216,117 l 9,0 0,9 -9,0 z M 252,117 l 9,0 0,9 -9,0 z M 9,126 l 9,0 0,9 -9,0 z M 36,126 l 9,0 0,9 -9,0 z M 54,126 l 9,0 0,9 -9,0 z M 72,126 l 9,0 0,9 -9,0 z M 81,126 l 9,0 0,9 -9,0 z M 90,126 l 9,0 0,9 -9,0 z M 117,126 l 9,0 0,9 -9,0 z M 126,126 l 9,0 0,9 -9,0 z M 135,126 l 9,0 0,9 -9,0 z M 180,126 l 9,0 0,9 -9,0 z M 189,126 l 9,0 0,9 -9,0 z M 207,126 l 9,0 0,9 -9,0 z M 225,126 l 9,0 0,9 -9,0 z M 234,126 l 9,0 0,9 -9,0 z M 0,135 l 9,0 0,9 -9,0 z M 18,135 l 9,0 0,9 -9,0 z M 45,135 l 9,0 0,9 -9,0 z M 81,135 l 9,0 0,9 -9,0 z M 90,135 l 9,0 0,9 -9,0 z M 108,135 l 9,0 0,9 -9,0 z M 117,135 l 9,0 0,9 -9,0 z M 135,135 l 9,0 0,9 -9,0 z M 144,135 l 9,0 0,9 -9,0 z M 162,135 l 9,0 0,9 -9,0 z M 180,135 l 9,0 0,9 -9,0 z M 198,135 l 9,0 0,9 -9,0 z M 207,135 l 9,0 0,9 -9,0 z M 243,135 l 9,0 0,9 -9,0 z M 0,144 l 9,0 0,9 -9,0 z M 27,144 l 9,0 0,9 -9,0 z M 36,144 l 9,0 0,9 -9,0 z M 45,144 l 9,0 0,9 -9,0 z M 54,144 l 9,0 0,9 -9,0 z M 63,144 l 9,0 0,9 -9,0 z M 72,144 l 9,0 0,9 -9,0 z M 90,144 l 9,0 0,9 -9,0 z M 108,144 l 9,0 0,9 -9,0 z M 126,144 l 9,0 0,9 -9,0 z M 135,144 l 9,0 0,9 -9,0 z M 153,144 l 9,0 0,9 -9,0 z M 225,144 l 9,0 0,9 -9,0 z M 234,144 l 9,0 0,9 -9,0 z M 0,153 l 9,0 0,9 -9,0 z M 63,153 l 9,0 0,9 -9,0 z M 81,153 l 9,0 0,9 -9,0 z M 90,153 l 9,0 0,9 -9,0 z M 144,153 l 9,0 0,9 -9,0 z M 153,153 l 9,0 0,9 -9,0 z M 162,153 l 9,0 0,9 -9,0 z M 171,153 l 9,0 0,9 -9,0 z M 180,153 l 9,0 0,9 -9,0 z M 189,153 l 9,0 0,9 -9,0 z M 198,153 l 9,0 0,9 -9,0 z M 207,153 l 9,0 0,9 -9,0 z M 216,153 l 9,0 0,9 -9,0 z M 234,153 l 9,0 0,9 -9,0 z M 252,153 l 9,0 0,9 -9,0 z M 0,162 l 9,0 0,9 -9,0 z M 27,162 l 9,0 0,9 -9,0 z M 36,162 l 9,0 0,9 -9,0 z M 54,162 l 9,0 0,9 -9,0 z M 63,162 l 9,0 0,9 -9,0 z M 72,162 l 9,0 0,9 -9,0 z M 81,162 l 9,0 0,9 -9,0 z M 99,162 l 9,0 0,9 -9,0 z M 108,162 l 9,0 0,9 -9,0 z M 135,162 l 9,0 0,9 -9,0 z M 144,162 l 9,0 0,9 -9,0 z M 153,162 l 9,0 0,9 -9,0 z M 198,162 l 9,0 0,9 -9,0 z M 234,162 l 9,0 0,9 -9,0 z M 0,171 l 9,0 0,9 -9,0 z M 18,171 l 9,0 0,9 -9,0 z M 27,171 l 9,0 0,9 -9,0 z M 36,171 l 9,0 0,9 -9,0 z M 90,171 l 9,0 0,9 -9,0 z M 99,171 l 9,0 0,9 -9,0 z M 126,171 l 9,0 0,9 -9,0 z M 135,171 l 9,0 0,9 -9,0 z M 180,171 l 9,0 0,9 -9,0 z M 198,171 l 9,0 0,9 -9,0 z M 216,171 l 9,0 0,9 -9,0 z M 243,171 l 9,0 0,9 -9,0 z M 0,180 l 9,0 0,9 -9,0 z M 18,180 l 9,0 0,9 -9,0 z M 45,180 l 9,0 0,9 -9,0 z M 54,180 l 9,0 0,9 -9,0 z M 72,180 l 9,0 0,9 -9,0 z M 81,180 l 9,0 0,9 -9,0 z M 90,180 l 9,0 0,9 -9,0 z M 99,180 l 9,0 0,9 -9,0 z M 135,180 l 9,0 0,9 -9,0 z M 153,180 l 9,0 0,9 -9,0 z M 180,180 l 9,0 0,9 -9,0 z M 189,180 l 9,0 0,9 -9,0 z M 198,180 l 9,0 0,9 -9,0 z M 207,180 l 9,0 0,9 -9,0 z M 216,180 l 9,0 0,9 -9,0 z M 234,180 l 9,0 0,9 -9,0 z M 243,180 l 9,0 0,9 -9,0 z M 252,180 l 9,0 0,9 -9,0 z M 72,189 l 9,0 0,9 -9,0 z M 81,189 l 9,0 0,9 -9,0 z M 108,189 l 9,0 0,9 -9,0 z M 117,189 l 9,0 0,9 -9,0 z M 126,189 l 9,0 0,9 -9,0 z M 144,189 l 9,0 0,9 -9,0 z M 171,189 l 9,0 0,9 -9,0 z M 180,189 l 9,0 0,9 -9,0 z M 216,189 l 9,0 0,9 -9,0 z M 225,189 l 9,0 0,9 -9,0 z M 234,189 l 9,0 0,9 -9,0 z M 243,189 l 9,0 0,9 -9,0 z M 252,189 l 9,0 0,9 -9,0 z M 0,198 l 9,0 0,9 -9,0 z M 9,198 l 9,0 0,9 -9,0 z M 18,198 l 9,0 0,9 -9,0 z M 27,198 l 9,0 0,9 -9,0 z M 36,198 l 9,0 0,9 -9,0 z M 45,198 l 9,0 0,9 -9,0 z M 54,198 l 9,0 0,9 -9,0 z M 72,198 l 9,0 0,9 -9,0 z M 81,198 l 9,0 0,9 -9,0 z M 90,198 l 9,0 0,9 -9,0 z M 117,198 l 9,0 0,9 -9,0 z M 126,198 l 9,0 0,9 -9,0 z M 135,198 l 9,0 0,9 -9,0 z M 144,198 l 9,0 0,9 -9,0 z M 153,198 l 9,0 0,9 -9,0 z M 171,198 l 9,0 0,9 -9,0 z M 180,198 l 9,0 0,9 -9,0 z M 198,198 l 9,0 0,9 -9,0 z M 216,198 l 9,0 0,9 -9,0 z M 225,198 l 9,0 0,9 -9,0 z M 234,198 l 9,0 0,9 -9,0 z M 0,207 l 9,0 0,9 -9,0 z M 54,207 l 9,0 0,9 -9,0 z M 108,207 l 9,0 0,9 -9,0 z M 117,207 l 9,0 0,9 -9,0 z M 144,207 l 9,0 0,9 -9,0 z M 171,207 l 9,0 0,9 -9,0 z M 180,207 l 9,0 0,9 -9,0 z M 216,207 l 9,0 0,9 -9,0 z M 0,216 l 9,0 0,9 -9,0 z M 18,216 l 9,0 0,9 -9,0 z M 27,216 l 9,0 0,9 -9,0 z M 36,216 l 9,0 0,9 -9,0 z M 54,216 l 9,0 0,9 -9,0 z M 72,216 l 9,0 0,9 -9,0 z M 81,216 l 9,0 0,9 -9,0 z M 108,216 l 9,0 0,9 -9,0 z M 126,216 l 9,0 0,9 -9,0 z M 153,216 l 9,0 0,9 -9,0 z M 180,216 l 9,0 0,9 -9,0 z M 189,216 l 9,0 0,9 -9,0 z M 198,216 l 9,0 0,9 -9,0 z M 207,216 l 9,0 0,9 -9,0 z M 216,216 l 9,0 0,9 -9,0 z M 234,216 l 9,0 0,9 -9,0 z M 243,216 l 9,0 0,9 -9,0 z M 0,225 l 9,0 0,9 -9,0 z M 18,225 l 9,0 0,9 -9,0 z M 27,225 l 9,0 0,9 -9,0 z M 36,225 l 9,0 0,9 -9,0 z M 54,225 l 9,0 0,9 -9,0 z M 72,225 l 9,0 0,9 -9,0 z M 90,225 l 9,0 0,9 -9,0 z M 144,225 l 9,0 0,9 -9,0 z M 153,225 l 9,0 0,9 -9,0 z M 162,225 l 9,0 0,9 -9,0 z M 180,225 l 9,0 0,9 -9,0 z M 207,225 l 9,0 0,9 -9,0 z M 225,225 l 9,0 0,9 -9,0 z M 234,225 l 9,0 0,9 -9,0 z M 243,225 l 9,0 0,9 -9,0 z M 252,225 l 9,0 0,9 -9,0 z M 0,234 l 9,0 0,9 -9,0 z M 18,234 l 9,0 0,9 -9,0 z M 27,234 l 9,0 0,9 -9,0 z M 36,234 l 9,0 0,9 -9,0 z M 54,234 l 9,0 0,9 -9,0 z M 72,234 l 9,0 0,9 -9,0 z M 81,234 l 9,0 0,9 -9,0 z M 90,234 l 9,0 0,9 -9,0 z M 99,234 l 9,0 0,9 -9,0 z M 108,234 l 9,0 0,9 -9,0 z M 135,234 l 9,0 0,9 -9,0 z M 153,234 l 9,0 0,9 -9,0 z M 171,234 l 9,0 0,9 -9,0 z M 180,234 l 9,0 0,9 -9,0 z M 198,234 l 9,0 0,9 -9,0 z M 207,234 l 9,0 0,9 -9,0 z M 216,234 l 9,0 0,9 -9,0 z M 225,234 l 9,0 0,9 -9,0 z M 234,234 l 9,0 0,9 -9,0 z M 243,234 l 9,0 0,9 -9,0 z M 0,243 l 9,0 0,9 -9,0 z M 54,243 l 9,0 0,9 -9,0 z M 72,243 l 9,0 0,9 -9,0 z M 90,243 l 9,0 0,9 -9,0 z M 99,243 l 9,0 0,9 -9,0 z M 126,243 l 9,0 0,9 -9,0 z M 135,243 l 9,0 0,9 -9,0 z M 144,243 l 9,0 0,9 -9,0 z M 162,243 l 9,0 0,9 -9,0 z M 180,243 l 9,0 0,9 -9,0 z M 216,243 l 9,0 0,9 -9,0 z M 225,243 l 9,0 0,9 -9,0 z M 243,243 l 9,0 0,9 -9,0 z M 0,252 l 9,0 0,9 -9,0 z M 9,252 l 9,0 0,9 -9,0 z M 18,252 l 9,0 0,9 -9,0 z M 27,252 l 9,0 0,9 -9,0 z M 36,252 l 9,0 0,9 -9,0 z M 45,252 l 9,0 0,9 -9,0 z M 54,252 l 9,0 0,9 -9,0 z M 72,252 l 9,0 0,9 -9,0 z M 99,252 l 9,0 0,9 -9,0 z M 153,252 l 9,0 0,9 -9,0 z M 171,252 l 9,0 0,9 -9,0 z M 216,252 l 9,0 0,9 -9,0 z M 225,252 l 9,0 0,9 -9,0 z M 234,252 l 9,0 0,9 -9,0 z " />
	</g>
</svg>
